HIERARCHY
ROOT Hips
{
	OFFSET -3.958830 18.904000 13.208200
	CHANNELS 6 Xposition Yposition Zposition Zrotation Yrotation Xrotation 
	JOINT LHipJoint
	{
		OFFSET 0.000000 0.000000 0.000000
		CHANNELS 3 Zrotation Yrotation Xrotation
		JOINT LeftUpLeg
		{
			OFFSET 1.800000 -1.400000 0.085000
			CHANNELS 3 Zrotation Yrotation Xrotation
			JOINT LeftLeg
			{
				OFFSET 2.215000 -6.000000 0.000000
				CHANNELS 3 Zrotation Yrotation Xrotation
				JOINT LeftFoot
				{
					OFFSET 2.500000 -6.900000 0.000000
					CHANNELS 3 Zrotation Yrotation Xrotation
					JOINT LeftToeBase
					{
						OFFSET 0.200000 -0.500000 1.950000
						CHANNELS 3 Zrotation Yrotation Xrotation
						End Site
						{
							OFFSET 0.000000 0.000000 0.000000
						}
					}
				}
			}
		}
	}
	JOINT RHipJoint
	{
		OFFSET 0.000000 0.000000 0.000000
		CHANNELS 3 Zrotation Yrotation Xrotation
		JOINT RightUpLeg
		{
			OFFSET -1.800000 -1.400000 0.085000
			CHANNELS 3 Zrotation Yrotation Xrotation
			JOINT RightLeg
			{
				OFFSET -2.215000 -6.000000 0.000000
				CHANNELS 3 Zrotation Yrotation Xrotation
				JOINT RightFoot
				{
					OFFSET -2.500000 -6.900000 0.000000
					CHANNELS 3 Zrotation Yrotation Xrotation
					JOINT RightToeBase
					{
						OFFSET -0.200000 -0.500000 1.950000
						CHANNELS 3 Zrotation Yrotation Xrotation
						End Site
						{
							OFFSET 0.000000 0.000000 0.000000
						}
					}
				}
			}
		}
	}
	JOINT LowerBack
	{
		OFFSET 0.000000 0.000000 0.000000
		CHANNELS 3 Zrotation Yrotation Xrotation
		JOINT Spine
		{
			OFFSET -0.087000 1.940000 -0.288900
			CHANNELS 3 Zrotation Yrotation Xrotation
			JOINT Spine1
			{
				OFFSET 0.000000 1.950000 0.060000
				CHANNELS 3 Zrotation Yrotation Xrotation
				JOINT Neck
				{
					OFFSET 0.000000 0.000000 0.000000
					CHANNELS 3 Zrotation Yrotation Xrotation
					JOINT Neck1
					{
						OFFSET 0.000000 1.600000 0.340000
						CHANNELS 3 Zrotation Yrotation Xrotation
						JOINT Head
						{
							OFFSET 0.000000 1.667000 -0.240000
							CHANNELS 3 Zrotation Yrotation Xrotation
							End Site
							{
								OFFSET 0.000000 0.000000 0.000000
							}
						}
					}
				}
				JOINT LeftShoulder
				{
					OFFSET 0.000000 0.000000 0.000000
					CHANNELS 3 Zrotation Yrotation Xrotation
					JOINT LeftArm
					{
						OFFSET 2.700000 1.550000 -0.730000
						CHANNELS 3 Zrotation Yrotation Xrotation
						JOINT LeftForeArm
						{
							OFFSET 5.450000 0.000000 0.000000
							CHANNELS 3 Zrotation Yrotation Xrotation
							JOINT LeftHand
							{
								OFFSET 3.450000 0.000000 0.000000
								CHANNELS 3 Zrotation Yrotation Xrotation
								JOINT LeftHandIndex1
								{
									OFFSET 0.750000 0.000000 0.000000
									CHANNELS 3 Zrotation Yrotation Xrotation
									End Site
									{
										OFFSET 0.000000 0.000000 0.000000
									}
								}
							}
						}
					}
				}
				JOINT RightShoulder
				{
					OFFSET 0.000000 0.000000 0.000000
					CHANNELS 3 Zrotation Yrotation Xrotation
					JOINT RightArm
					{
						OFFSET -2.700000 1.550000 -0.730000
						CHANNELS 3 Zrotation Yrotation Xrotation
						JOINT RightForeArm
						{
							OFFSET -5.450000 0.000000 0.000000
							CHANNELS 3 Zrotation Yrotation Xrotation
							JOINT RightHand
							{
								OFFSET -3.450000 0.000000 0.000000
								CHANNELS 3 Zrotation Yrotation Xrotation
								JOINT RightHandIndex1
								{
									OFFSET -0.750000 0.000000 0.000000
									CHANNELS 3 Zrotation Yrotation Xrotation
									End Site
									{
										OFFSET 0.000000 0.000000 0.000000
									}
								}
							}
						}
					}
				}
			}
		}
	}
}
MOTION
Frames: 11
Frame Time: 0.016667
-0.548930 17.403270 -1.518000 -73.663983 -61.758173 50.200408 -15.510482 12.818060 3.005849 27.507462 -1.479278 6.615615 -8.900974 7.497219 4.586492 0.362478 6.601780 2.317657 0.693900 0.374340 0.796560 18.126432 -8.181736 4.258975 -38.656126 -4.857597 -19.782705 83.353629 -48.383098 29.732499 -2.638925 -10.691084 0.802443 0.140260 -0.329230 0.069780 -3.746390 -6.119871 -8.385645 35.085177 -16.606279 27.996046 -13.459633 -9.165204 7.012987 7.467194 -6.800553 -16.854983 -24.388877 13.348046 36.786223 -2.547470 7.990700 -18.756150 -20.308465 -24.627576 5.835153 -1.683946 -9.199906 -8.693323 -4.659503 -51.853660 1.516795 -2.833838 3.728882 0.734160 -0.353130 0.348490 0.104070 5.754017 23.486804 12.462784 30.434120 -15.248873 -18.215478 -11.687150 52.915799 -4.782377 1.811728 -1.525512 -0.066850 0.094760 -0.322310 -0.306850 
-0.556990 17.394980 -1.500980 -94.431791 -64.249106 71.606991 -15.444894 12.837736 3.146602 26.488002 -1.231094 9.693762 -8.427034 7.163609 2.089860 0.525746 6.541944 2.344457 0.754510 0.441540 0.892840 18.146867 -8.028935 4.552558 -35.994639 -2.669129 -22.602207 84.069036 -46.799977 29.446563 -2.741020 -10.748808 0.790847 0.120700 -0.478800 0.049370 -3.472097 -6.434807 -8.662504 33.605316 -16.564109 30.130340 -13.638883 -8.341156 4.990450 8.164333 -5.486527 -16.807492 -21.032492 12.672886 43.662938 -3.023310 8.146480 -21.576960 -24.664585 -24.698443 6.035769 0.583909 -4.278696 -8.044639 -12.921728 -57.731179 5.998028 -2.676478 3.841517 0.799030 -0.465160 0.456310 0.091640 8.373318 25.082637 12.971841 25.590195 -12.269458 -16.556619 -6.838009 55.385562 -3.201283 1.933155 -1.502616 -0.011130 0.042880 -0.408870 -0.325060 
-0.587130 17.338310 -1.503150 -129.499893 -59.558494 112.121165 -15.320421 12.425370 3.044499 25.737488 -0.711646 8.956580 -11.983990 7.494644 0.879467 0.561631 6.821969 2.248508 0.502670 0.141910 0.681190 18.412730 -7.246004 5.153624 -33.482240 1.909143 -33.212241 86.239288 -44.502353 28.383157 -2.742278 -11.069583 0.731300 -0.063010 -0.339440 0.111860 -3.704007 -4.847193 -9.248683 35.636189 -14.742023 29.334763 -15.818604 -4.750951 -2.728551 6.684537 -4.716492 -14.588892 -14.908791 11.423722 45.783932 -1.596420 9.263570 -19.056100 -28.846205 -18.934367 5.022654 1.493570 1.441405 -3.855860 -19.848416 -66.664067 12.264943 -3.111421 3.671812 0.785970 -0.373550 0.353110 0.013560 15.171398 21.293105 11.261618 16.196958 -7.100143 -10.232493 7.807894 57.088391 4.440057 2.154036 -1.481986 -0.050460 0.002780 -0.202440 -0.325200 
-0.607930 17.294530 -1.512090 -141.061678 -53.915070 126.256165 -15.377589 12.319513 3.029106 25.788630 -0.683367 8.334386 -13.110621 7.697631 0.961553 0.605610 6.902741 2.288466 0.381440 -0.007080 0.543770 18.377542 -7.078612 5.357058 -31.890662 3.335958 -36.917365 85.496350 -44.229814 28.998426 -2.741205 -11.214149 0.766131 -0.158910 -0.225260 0.091000 -3.760704 -4.670027 -9.473583 35.231075 -14.775522 30.184560 -15.942868 -4.229922 -5.927854 5.663329 -4.424594 -14.729958 -13.598566 7.647951 45.183791 1.552810 4.620270 -18.359910 -29.275823 -17.628681 6.321634 0.433761 6.225825 -2.515052 -37.908770 -76.389773 27.285150 -3.176009 3.656552 0.784410 -0.351040 0.288240 0.042540 17.504377 20.969475 10.701253 15.078720 -5.098333 -9.297730 14.291722 62.278523 8.399441 2.210612 -1.491709 -0.093140 0.057790 -0.147980 -0.276890 
-0.621240 17.232210 -1.539290 -148.079449 -50.021690 134.044192 -15.421072 12.205969 2.993756 25.467324 -0.720195 8.607329 -14.408310 7.975877 1.507370 0.692538 6.926693 2.290012 0.406710 0.014540 0.574520 18.358272 -6.991592 5.577727 -32.432984 2.056438 -39.142054 93.564063 -42.811280 24.148811 -2.756889 -10.980305 0.859583 -0.178320 -0.284620 0.094090 -3.782347 -4.462861 -9.750891 32.067554 -14.180241 31.009380 -14.966927 -4.175373 -5.612041 5.278851 -2.179544 -15.017020 -9.398408 1.811327 46.142412 1.659720 0.142340 -19.086960 -28.819115 -19.045474 7.304656 -2.081687 4.713358 -2.558867 -51.171400 -78.647366 38.828230 -3.098501 3.694000 0.759670 -0.384210 0.309980 0.050650 17.370178 21.350416 10.878338 17.068454 -4.456691 -9.920846 19.893764 68.943151 12.038425 2.242884 -1.597276 -0.040170 0.009820 -0.202710 -0.260290 
-0.658740 17.154650 -1.547600 -153.870540 -45.036695 140.989129 -15.442728 12.059049 2.940218 24.690575 -0.647789 8.791995 -15.567081 8.118064 1.810297 0.730589 6.936252 2.230326 0.456180 0.039060 0.591350 18.363886 -6.943382 5.815554 -33.310578 1.071637 -41.457664 100.314284 -42.191067 20.687908 -2.796349 -10.946464 0.824541 -0.192630 -0.357240 0.217300 -3.777355 -4.218024 -9.973374 30.657511 -12.738200 30.342631 -14.517362 -3.191233 -5.250387 5.104919 0.644792 -15.194981 -4.328465 -4.566931 46.303406 1.009840 -4.774740 -18.258300 -29.483739 -20.326124 7.817865 -4.200019 1.439523 -1.398008 -68.498768 -77.828495 53.168250 -3.138664 3.798150 0.717230 -0.383280 0.338520 0.034520 17.871777 21.291591 11.129041 17.162183 -4.472158 -9.488685 29.432489 74.934589 19.167300 2.283546 -1.790594 0.077510 -0.146950 -0.206320 -0.243370 
-0.675410 17.089060 -1.533440 -157.130824 -39.161900 145.439671 -15.389457 11.946166 2.899515 24.397607 -0.662967 8.859569 -15.711224 8.182366 2.214454 0.657926 6.941208 2.227052 0.450540 0.033380 0.589690 18.394657 -7.212992 5.749558 -32.009123 1.251982 -41.496502 101.046121 -43.525953 21.008159 -2.805749 -11.043468 0.781952 -0.159160 -0.337660 0.204530 -3.889301 -3.659758 -9.957172 30.652752 -11.674672 28.958553 -14.154788 -2.752481 -2.489985 5.003938 2.822199 -15.224211 -0.251548 -9.674523 45.595896 2.533850 -9.347080 -18.999210 -29.664042 -22.346193 8.242867 -6.680351 -2.446142 -0.921942 -79.120419 -76.210460 60.780508 -3.250343 3.589910 0.710510 -0.372560 0.316730 0.017440 17.797537 21.906076 11.370182 17.301815 -3.104328 -9.951487 35.358573 80.206886 24.251244 2.277222 -1.820762 0.050060 -0.103480 -0.182070 -0.244510 
-0.685010 17.053660 -1.506860 -160.006553 -31.749830 148.545545 -15.354532 12.005045 2.870429 24.302376 -0.556118 9.770254 -15.842291 8.571484 3.453780 0.607460 7.062652 2.164783 0.471790 0.036830 0.638180 18.394766 -7.304383 5.798159 -30.517724 1.551132 -41.452902 105.239713 -42.672565 18.976145 -2.842794 -11.001419 0.783623 -0.135470 -0.369520 0.200250 -3.754704 -3.622367 -9.940652 29.853310 -11.839084 30.034133 -14.145639 -2.817058 -0.299193 5.557310 4.667417 -16.382880 3.194503 -12.962393 46.748646 2.840590 -11.541210 -20.727270 -31.078248 -25.525819 9.182794 -8.338332 -3.719033 -1.575605 -96.457782 -76.747756 75.791665 -3.397512 2.888475 0.757370 -0.394660 0.333540 -0.014140 17.661235 24.636942 12.181507 16.793535 -0.202607 -10.501240 43.393010 84.387984 31.196711 2.265823 -1.826618 0.029060 -0.080260 -0.169010 -0.278980 
-0.716600 17.026400 -1.482960 -161.906720 -23.415200 151.184127 -15.311042 12.167428 2.966799 24.289060 -0.583213 10.704713 -15.825002 8.724922 3.946144 0.647886 7.088505 2.156804 0.590270 0.178530 0.731990 18.371636 -7.550887 5.605801 -27.843126 2.479538 -41.716434 102.642470 -47.982193 23.096347 -2.993325 -11.330284 0.686650 -0.070310 -0.435280 0.202390 -3.648194 -3.692568 -9.815903 29.842478 -12.430206 30.325100 -13.955054 -3.541664 2.800819 6.252578 5.381636 -17.551634 4.430450 -14.467397 49.267329 3.595720 -12.756610 -23.638010 -31.935253 -29.028024 10.463213 -8.501952 -6.201733 -2.167386 -95.405294 -77.240212 74.098843 -3.262623 2.957092 0.790890 -0.458320 0.418850 0.022250 16.959590 28.319437 12.433457 16.055176 3.397494 -12.613350 38.897313 86.337046 27.227853 2.163504 -1.935322 0.071530 -0.058550 -0.254120 -0.266690 
-0.740100 17.023290 -1.491060 -163.659506 -16.319370 153.871937 -15.354424 12.316597 3.086683 23.498359 -0.732798 11.437979 -16.089715 8.627908 3.782687 0.568596 7.086157 2.110830 0.679540 0.283080 0.818100 18.275531 -7.717611 5.459313 -26.435912 1.954411 -41.111527 97.876471 -52.471102 27.832320 -3.073040 -11.508580 0.617426 0.006540 -0.517060 0.201960 -3.361603 -3.851901 -9.744680 26.736431 -12.045245 31.322039 -12.972386 -4.325226 3.459661 6.542950 8.680570 -18.484637 11.731127 -19.155713 50.283312 3.696290 -13.634830 -26.832070 -35.116159 -31.811531 11.422527 -5.677814 -9.474513 -1.343798 -85.744107 -79.454311 67.924435 -3.022972 3.589922 0.872360 -0.499060 0.489630 0.009710 19.203754 29.204432 12.514351 14.825499 6.580501 -11.818232 44.022818 88.151513 31.679345 2.167454 -1.907667 0.065520 -0.037960 -0.281680 -0.315690 
-0.758440 16.993300 -1.519290 -164.348152 -12.249811 156.071759 -15.298595 12.284029 3.040272 22.899163 -0.761317 10.744302 -16.206457 8.666750 4.528280 0.507705 6.971039 2.107901 0.666600 0.285960 0.800140 18.314025 -7.970912 5.357096 -27.856839 0.690494 -39.874459 96.347787 -55.885610 30.095353 -3.031811 -11.424126 0.615896 0.018380 -0.532710 0.169800 -3.465525 -3.545100 -9.646222 25.152442 -12.737452 29.770488 -12.518930 -6.436593 5.920305 6.011480 9.284303 -19.347911 13.619128 -21.698759 50.961317 7.248660 -16.039630 -28.291930 -33.242209 -34.199751 12.428790 -6.127531 -10.563161 -2.012544 -92.452680 -81.490634 74.903958 -3.217328 2.680998 0.878650 -0.529070 0.486480 -0.026380 18.124467 30.893368 12.266843 15.221082 9.703787 -13.157258 34.531530 89.091996 23.359791 2.107261 -1.871654 0.060920 -0.023720 -0.255190 -0.313390 
